<?xml version="1.0" standalone="no"?>
<!DOCTYPE svg PUBLIC "-//W3C//DTD SVG 20010904//EN"
 "http://www.w3.org/TR/2001/REC-SVG-20010904/DTD/svg10.dtd">
<svg version="1.0" xmlns="http://www.w3.org/2000/svg"
 width="1620.000000pt" height="1620.000000pt" viewBox="0 0 1620.000000 1620.000000"
 preserveAspectRatio="xMidYMid meet">
<metadata>
Created by potrace 1.14, written by Peter Selinger 2001-2017
</metadata>
<g transform="translate(0.000000,1620.000000) scale(0.100000,-0.100000)"
fill="#000000" stroke="none">
<path d="M0 8100 l0 -8100 8100 0 8100 0 0 8100 0 8100 -8100 0 -8100 0 0
-8100z m11732 3313 c35 -32 61 -105 61 -173 0 -81 -15 -111 -91 -181 -94 -87
-274 -184 -477 -258 -49 -18 -99 -37 -110 -42 -11 -5 -40 -14 -65 -19 -25 -6
-70 -17 -100 -25 -210 -52 -441 -90 -605 -100 -231 -14 -680 29 -895 85 -137
36 -346 102 -397 125 -17 8 -33 15 -36 15 -3 0 -35 14 -71 30 -76 35 -115 80
-123 140 -10 75 40 181 91 194 22 5 107 -10 276 -49 236 -55 492 -85 800 -91
321 -7 541 8 865 60 90 14 324 64 337 72 3 2 44 15 90 28 127 37 212 80 261
129 77 80 144 101 189 60z m-7032 -613 c0 -88 3 -160 7 -160 3 0 41 12 82 26
42 15 173 60 291 101 118 41 271 94 340 118 69 23 137 48 152 54 68 26 438
-168 688 -362 88 -69 267 -244 351 -344 262 -311 443 -708 524 -1148 28 -152
55 -444 55 -595 0 -256 -72 -619 -176 -881 -312 -790 -956 -1452 -1701 -1748
-136 -54 -268 -92 -438 -127 l-140 -29 -645 0 -645 0 0 72 c0 62 3 75 25 98
32 35 51 42 190 75 l115 27 3 2270 2 2270 -109 6 c-178 9 -221 41 -221 163 0
71 1 73 28 78 26 5 381 63 647 106 218 35 489 78 515 83 64 11 60 22 60 -153z
m7593 -430 l88 -9 77 -65 c147 -122 307 -307 432 -496 234 -357 362 -757 409
-1280 34 -373 -29 -783 -179 -1155 -211 -524 -580 -1000 -1057 -1363 -113 -86
-344 -225 -488 -292 -151 -72 -287 -121 -440 -159 -244 -60 -268 -62 -955 -59
l-625 3 1 62 c2 108 26 129 210 176 l129 33 3 1921 2 1920 113 11 c116 12 204
25 272 42 22 5 81 19 130 31 91 21 173 44 210 59 11 4 49 18 85 31 36 12 70
26 77 31 7 6 17 7 23 3 7 -4 10 -620 10 -1981 l0 -1975 23 7 c42 13 202 93
283 142 279 167 577 462 751 741 263 421 393 910 393 1473 -1 373 -65 664
-220 983 -168 347 -404 613 -687 774 -51 29 -93 54 -93 56 0 5 211 122 325
179 123 63 220 102 330 133 103 29 235 37 368 23z m-4443 -3110 c0 -96 4 -160
10 -160 9 0 103 44 485 230 185 89 191 92 243 86 133 -16 232 -122 261 -280 7
-40 11 -300 11 -773 l0 -713 28 -5 c15 -3 43 -13 62 -23 31 -15 35 -22 38 -59
l3 -43 -380 0 -381 0 0 39 c0 49 14 61 98 81 l67 16 3 575 c2 553 2 576 -18
641 -23 77 -63 129 -124 160 -61 32 -176 29 -281 -6 -44 -15 -90 -34 -102 -42
l-23 -14 0 -654 c0 -511 3 -656 13 -663 6 -6 28 -13 48 -17 45 -8 70 -35 72
-78 l2 -33 -380 0 -380 0 2 33 c1 41 25 69 67 77 17 4 48 11 69 16 l37 10 -2
767 -3 767 -60 6 c-33 3 -70 11 -82 17 -28 15 -42 78 -22 97 8 7 109 27 224
45 116 19 244 39 285 46 41 6 83 12 93 13 15 1 17 -13 17 -159z m-200 -2822
c186 -50 289 -63 515 -63 217 0 258 5 454 56 95 24 138 24 178 -1 69 -42 96
-163 51 -230 -40 -58 -130 -91 -363 -131 -107 -19 -167 -23 -340 -22 -270 0
-390 17 -633 90 -131 39 -181 98 -169 201 4 39 13 53 51 90 46 43 48 44 104
40 31 -3 100 -16 152 -30z"/>
<path d="M4700 8222 c0 -1353 4 -2143 10 -2147 13 -8 278 129 383 199 516 345
876 895 1001 1530 62 310 79 689 42 936 -72 496 -265 900 -581 1215 -109 109
-183 167 -312 244 -169 99 -309 148 -455 158 l-88 6 0 -2141z"/>
</g>
</svg>
